/* XPM */
static char *bigger[] = {
/* columns rows colors chars-per-pixel */
"256 64 8 1 ",
"  c #221C1A",
". c #73172D",
"X c #422433",
"o c #5B3138",
"O c #B4202A",
"+ c #DF3E23",
"@ c #FF8155",
"# c None",
/* pixels */
"################################################################################################################################################################################################################################################################",
"################################################################################################################################################################################################################################################################",
"################################################################################################################################################################################################################################################################",
"################################################################################################################################################################################################################################################################",
"################################################################################################################################################################################################################################################################",
"################################################################################################################################################################################################################################################################",
"################################################################################################################################################################################################################################################################",
"################################################################################################################################################################################################################################################################",
"############################XXXXoooo########################################################XXXXoooo########################################################XXXXoooo############################################################XXXX############################",
"############################XXXXoooo########################################################XXXXoooo########################################################XXXXoooo############################################################XXXX############################",
"############################XXXXoooo########################################################XXXXoooo########################################################XXXXoooo############################################################XXXX############################",
"############################XXXXoooo########################################################XXXXoooo########################################################XXXXoooo############################################################XXXX############################",
"####################################oooo############################################################oooo############################################################oooo############################################################oooo########################",
"####################################oooo############################################################oooo############################################################oooo############################################################oooo########################",
"####################################oooo############################################################oooo############################################################oooo############################################################oooo########################",
"####################################oooo############################################################oooo############################################################oooo############################################################oooo########################",
"####################################XXXX########################################################XXXX################################################################XXXX############################################################oooo########################",
"####################################XXXX########################################################XXXX################################################################XXXX############################################################oooo########################",
"####################################XXXX########################################################XXXX################################################################XXXX############################################################oooo########################",
"####################################XXXX########################################################XXXX################################################################XXXX############################################################oooo########################",
"################################XXXX############################################............XXXX........++++@@@@################################################XXXX################################################################XXXX########################",
"################################XXXX############################################............XXXX........++++@@@@################################################XXXX################################################################XXXX########################",
"################################XXXX############################################............XXXX........++++@@@@################################################XXXX################################################################XXXX########################",
"################################XXXX############################################............XXXX........++++@@@@################################################XXXX################################################################XXXX########################",
"####################............XXXX....++++@@@@############################............++++....OOOOOOOOOOOO++++@@@@################################............XXXX....++++@@@@################################################XXXX############################",
"####################............XXXX....++++@@@@############################............++++....OOOOOOOOOOOO++++@@@@################################............XXXX....++++@@@@################################################XXXX############################",
"####################............XXXX....++++@@@@############################............++++....OOOOOOOOOOOO++++@@@@################################............XXXX....++++@@@@################################################XXXX############################",
"####################............XXXX....++++@@@@############################............++++....OOOOOOOOOOOO++++@@@@################################............XXXX....++++@@@@################################################XXXX############################",
"################............++++....OOOOOOOO++++@@@@########################........++++++++++++@@@@@@@@OOOO++++@@@@############################............++++....OOOOOOOO++++@@@@################################............XXXX++++@@@@####################",
"################............++++....OOOOOOOO++++@@@@########################........++++++++++++@@@@@@@@OOOO++++@@@@############################............++++....OOOOOOOO++++@@@@################################............XXXX++++@@@@####################",
"################............++++....OOOOOOOO++++@@@@########################........++++++++++++@@@@@@@@OOOO++++@@@@############################............++++....OOOOOOOO++++@@@@################################............XXXX++++@@@@####################",
"################............++++....OOOOOOOO++++@@@@########################........++++++++++++@@@@@@@@OOOO++++@@@@############################............++++....OOOOOOOO++++@@@@################################............XXXX++++@@@@####################",
"################........++++++++++++@@@@OOOO++++@@@@########################........OOOO++++@@@@OOOOOOOOOOOO++++++++############################........++++++++++++@@@@OOOO++++@@@@############################............++++....OOOO++++@@@@################",
"################........++++++++++++@@@@OOOO++++@@@@########################........OOOO++++@@@@OOOOOOOOOOOO++++++++############################........++++++++++++@@@@OOOO++++@@@@############################............++++....OOOO++++@@@@################",
"################........++++++++++++@@@@OOOO++++@@@@########################........OOOO++++@@@@OOOOOOOOOOOO++++++++############################........++++++++++++@@@@OOOO++++@@@@############################............++++....OOOO++++@@@@################",
"################........++++++++++++@@@@OOOO++++@@@@########################........OOOO++++@@@@OOOOOOOOOOOO++++++++############################........++++++++++++@@@@OOOO++++@@@@############################............++++....OOOO++++@@@@################",
"################........OOOO++++@@@@OOOOOOOO++++++++############################........OOOO++++++++++++++++++++################################........OOOO++++@@@@OOOOOOOO++++++++############################........++++++++++++OOOO++++@@@@################",
"################........OOOO++++@@@@OOOOOOOO++++++++############################........OOOO++++++++++++++++++++################################........OOOO++++@@@@OOOOOOOO++++++++############################........++++++++++++OOOO++++@@@@################",
"################........OOOO++++@@@@OOOOOOOO++++++++############################........OOOO++++++++++++++++++++################################........OOOO++++@@@@OOOOOOOO++++++++############################........++++++++++++OOOO++++@@@@################",
"################........OOOO++++@@@@OOOOOOOO++++++++############################........OOOO++++++++++++++++++++################################........OOOO++++@@@@OOOOOOOO++++++++############################........++++++++++++OOOO++++@@@@################",
"####################....OOOOOOOOOOOOOOOO++++++++####################################........    ........++++########################################....OOOOOOOOOOOOOOOO++++++++################################........OOOO++++@@@@OOOO++++++++################",
"####################....OOOOOOOOOOOOOOOO++++++++####################################........    ........++++########################################....OOOOOOOOOOOOOOOO++++++++################################........OOOO++++@@@@OOOO++++++++################",
"####################....OOOOOOOOOOOOOOOO++++++++####################################........    ........++++########################################....OOOOOOOOOOOOOOOO++++++++################################........OOOO++++@@@@OOOO++++++++################",
"####################....OOOOOOOOOOOOOOOO++++++++####################################........    ........++++########################################....OOOOOOOOOOOOOOOO++++++++################################........OOOO++++@@@@OOOO++++++++################",
"####################........OOOO++++++++++++++++####################################################################################################........OOOO++++++++++++++++################################........OOOO++++@@@@OOOO++++++++################",
"####################........OOOO++++++++++++++++####################################################################################################........OOOO++++++++++++++++################################........OOOO++++@@@@OOOO++++++++################",
"####################........OOOO++++++++++++++++####################################################################################################........OOOO++++++++++++++++################################........OOOO++++@@@@OOOO++++++++################",
"####################........OOOO++++++++++++++++####################################################################################################........OOOO++++++++++++++++################################........OOOO++++@@@@OOOO++++++++################",
"########################........    ....++++############################################################################################################........    ....++++########################################....OOOOOOOOOOOO++++++++####################",
"########################........    ....++++############################################################################################################........    ....++++########################################....OOOOOOOOOOOO++++++++####################",
"########################........    ....++++############################################################################################################........    ....++++########################################....OOOOOOOOOOOO++++++++####################",
"########################........    ....++++############################################################################################################........    ....++++########################################....OOOOOOOOOOOO++++++++####################",
"####################################################################################################################################################################################################################........OOOO++++++++++++####################",
"####################################################################################################################################################################################################################........OOOO++++++++++++####################",
"####################################################################################################################################################################################################################........OOOO++++++++++++####################",
"####################################################################################################################################################################################################################........OOOO++++++++++++####################",
"########################################################################################################################################################################################################################........    ++++########################",
"########################################################################################################################################################################################################################........    ++++########################",
"########################################################################################################################################################################################################################........    ++++########################",
"########################################################################################################################################################################################################################........    ++++########################",
"################################################################################################################################################################################################################################################################",
"################################################################################################################################################################################################################################################################",
"################################################################################################################################################################################################################################################################",
"################################################################################################################################################################################################################################################################"
};
